{"title":"Prometheus 2012 480P BRRip x264 [Dual Audio] Eng-Hin NimitMak Si","uid":7675456,"size":538489455,"categoryP":"video","categoryS":"movies","magnet":"?xt=urn:btih:e3a3ae19671294f070b1ed52eee00444f86da2b7&amp;dn=Prometheus+2012+480P+BRRip+x264+%5BDual+Audio%5D+Eng-Hin+NimitMak+Si&amp;tr=udp%3A%2F%2Ftracker.openbittorrent.com%3A80&amp;tr=udp%3A%2F%2Fopen.demonii.com%3A1337&amp;tr=udp%3A%2F%2Ftracker.coppersurfer.tk%3A6969&amp;tr=udp%3A%2F%2Fexodus.desync.com%3A6969","seeders":0,"leechers":0,"uploader":"MFATeam","files":7,"time":1348683767,"description":"::General::\nComplete name: Prometheus 2012 480P BRRip x264 [Dual Audio] Eng-Hin NimitMak SilverRG\nDirector: Ridley Scott\nFormat: MPEG-4\nFile size: 504 MiB\nDuration: 2h 3mn\nOverall Bitrate: 569 Kbps\nLanguage: Dual-Audio [English-Hindi]\nSub Title: Englis,Persian (.srt) Softcoded ,Can Be Turned Off.\nEncoded date: 2012-09-26\nWriting application: MeGui\nWriting library: x264 core 100 r1659 57b2e56\nEncoder: NimitMak\nSource: 720p.BluRay.X264.YIFY (Thanks)\n\n\n\n::IMDB INFO::\nIMDB Link: http://www.imdb.com/title/tt1446714/ \nIMDB Rating:7.4/10\nRelease Date: 8 June 2012 (India)\nGenre: Adventure | Sci-Fi | Thriller \nYouTube\n\n\n\n::Video::\nID: 1\nFormat: AVC\nFormat/Info: Advanced Video Codec\nFormat profile: &lt;a class=&quot;__cf_email__&quot; href=&quot;/cdn-cgi/l/email-protection&quot; data-cfemail=&quot;9dd5f4faf5ddd1aeb3ad&quot;&gt;[email&amp;#160;protected]&lt;/a&gt;&lt;script cf-hash='f9e31' type=&quot;text/javascript&quot;&gt;\n/* &lt;![CDATA[ */!function(){try{var t=&quot;currentScript&quot;in document?document.currentScript:function(){for(var t=document.getElementsByTagName(&quot;script&quot;),e=t.length;e--;)if(t[e].getAttribute(&quot;cf-hash&quot;))return t[e]}();if(t&amp;&amp;t.previousSibling){var e,r,n,i,c=t.previousSibling,a=c.getAttribute(&quot;data-cfemail&quot;);if(a){for(e=&quot;&quot;,r=parseInt(a.substr(0,2),16),n=2;a.length-n;n+=2)i=parseInt(a.substr(n,2),16)^r,e+=String.fromCharCode(i);e=document.createTextNode(e),c.parentNode.replaceChild(e,c)}}}catch(u){}}();/* ]]&gt; */&lt;/script&gt;\nFormat settings, CABAC: Yes\nFormat settings, ReFrames: 4 frames\nCodec ID: V_MPEG4/ISO/AVC\nNominal Bitrate: 502 Kbps/10.6 Mbps(Max)\nWidth: 852 pixels\nHeight: 352 pixels\nDisplay aspect ratio: 2.40:1\nFrame rate: 23.976 fps\nColor space: YUV\nChroma subsampling: 4:2:0\nBit depth: 8 bits\nScan type: Progressive\nWriting library: x264 core 100 r1659 57b2e56\n\n\n\n::Audio::\nID: 2\nFormat : AAC\nFormat/Info: Advanced Audio Codec\nFormat profile : HE-AAC / LC\nCodec ID : 40\nDuration: 2h 3mn\nBit rate mode: Variable\nBit rate: 32.0 Kbps\nMaximum bit rate: 42.2 Kbps\nChannel(s): 2 channels\nChannel positions: Front: L R\nSampling rate: 22.05 KHz / 11.025 KHz\nCompression mode: Lossy\nStream size: 28.3 MiB (6%)\nTitle: English - NimitMak SilverRG\nLanguage: English\n\n\n\n::Audio::\nID: 3\nFormat: AAC\nFormat/Info: Advanced Audio Codec\nFormat profile: HE-AAC / LC\nCodec ID: 40\nDuration: 2h 3mn\nBit rate mode: Variable\nBit rate: 32.0 Kbps\nMaximum bit rate: 47.1 Kbps\nChannel(s): 2 channels\nChannel positions: Front: L R\nSampling rate : 22.05 KHz / 11.025 KHz\nCompression mode: Lossy\nStream size: 28.3 MiB (6%)\nTitle: Mafiaking - Thanks\nLanguage: Hindi\n\n\n::Cast::\nNoomi Rapace, Logan Marshall-Green and Michael Fassbender\n\n\n\n::Plot::\nA team of explorers discover a clue to the origins of mankind on Earth, leading them on a journey to the darkest corners of the \n\nuniverse. There, they must fight a terrifying battle to save the future of the human race.\n","torrent":{"xt":"urn:btih:e3a3ae19671294f070b1ed52eee00444f86da2b7","amp;dn":"Prometheus+2012+480P+BRRip+x264+%5BDual+Audio%5D+Eng-Hin+NimitMak+Si","amp;tr":["udp%3A%2F%2Ftracker.openbittorrent.com%3A80","udp%3A%2F%2Fopen.demonii.com%3A1337","udp%3A%2F%2Ftracker.coppersurfer.tk%3A6969","udp%3A%2F%2Fexodus.desync.com%3A6969"],"infoHash":"e3a3ae19671294f070b1ed52eee00444f86da2b7","infoHashBuffer":{"type":"Buffer","data":[227,163,174,25,103,18,148,240,112,177,237,82,238,224,4,68,248,109,162,183]},"announce":[],"urlList":[]}}